<svg xmlns="http://www.w3.org/2000/svg" viewBox="0 0 590 768" version="1.1">
	<path d="M 243.329 32.250 C 174.680 125.450, 119.103 204.270, 86.265 255 C 33.307 336.814, 13.116 382.802, 3.728 442.987 C 0.628 462.858, 0.699 504.266, 3.868 525 C 11.992 578.158, 31.754 623.579, 64.428 664.196 C 90.732 696.892, 127.749 725.550, 165 742.056 C 177.603 747.640, 201.983 756.129, 203.221 755.363 C 203.649 755.099, 204 711.770, 204 659.077 C 204 598.456, 204.373 561.295, 205.015 557.886 C 208.547 539.147, 222.849 524.141, 244 516.983 C 253.963 513.611, 273.812 513.051, 284.806 515.832 C 305.871 521.159, 320.947 534.031, 326.934 551.804 C 328.942 557.763, 328.982 559.806, 329.010 656.394 C 329.025 710.575, 329.399 755.129, 329.841 755.401 C 331.106 756.184, 355.555 747.685, 367.947 742.155 C 401.045 727.386, 433.476 703.444, 458.619 675.219 C 497.967 631.045, 521.833 577.906, 529.631 517.105 C 531.821 500.029, 531.827 464.797, 529.643 447.895 C 518.429 361.113, 480.532 293.548, 317.124 69 C 305.316 52.775, 292.054 34.550, 287.651 28.500 C 283.248 22.450, 276.982 13.787, 273.726 9.250 C 270.470 4.713, 267.478 1, 267.077 1 C 266.676 1, 255.989 15.063, 243.329 32.250 M 255.500 341.442 C 237.621 344.859, 222.563 354.346, 212.389 368.603 C 187.255 403.825, 199.136 451.696, 237.677 470.489 C 248.373 475.705, 256.400 477.283, 269.500 476.746 C 287.748 475.998, 301.563 469.755, 314.724 456.310 C 332.495 438.155, 338.590 410.935, 330.283 386.832 C 319.487 355.511, 286.535 335.511, 255.500 341.442 M 551.994 590.879 C 541.366 594.348, 535.978 601.547, 536.022 612.218 C 536.103 631.732, 558.806 641.220, 572.559 627.487 C 585.411 614.655, 577.361 592.109, 559.352 590.495 C 556.684 590.256, 553.372 590.429, 551.994 590.879 M 534.108 672.082 C 521.932 674.473, 508.155 684.841, 502.608 695.787 C 493.148 714.456, 495.911 734.280, 510.086 749.433 C 529.828 770.537, 563.676 768.129, 580.595 744.419 C 586.568 736.049, 589 728.259, 589 717.500 C 589 707.339, 586.721 699.432, 581.545 691.634 C 571.208 676.061, 552.697 668.431, 534.108 672.082 M 438.278 722.148 C 429.285 726.510, 422.942 737.984, 424.419 747.218 C 426.453 759.937, 438.424 769.310, 450.517 767.653 C 463.423 765.884, 473.126 754.158, 471.694 742.062 C 469.721 725.403, 452.600 715.200, 438.278 722.148" stroke="none" fill="currentColor" fill-rule="evenodd"/>
</svg>